<?xml version="1.0" encoding="utf-8"?>
<!-- Generator: Adobe Illustrator 19.0.0, SVG Export Plug-In . SVG Version: 6.00 Build 0)  -->
<svg version="1.1" id="Layer_1" xmlns="http://www.w3.org/2000/svg" xmlns:xlink="http://www.w3.org/1999/xlink" x="0px" y="0px"
	 viewBox="0 0 16 16" style="enable-background:new 0 0 16 16;" xml:space="preserve">
<style type="text/css">
	.st0{fill:#ff4040;}
</style>
<path class="st0" d="M8,2.5C4.4,2.5,1.2,4.8,0,8c1.2,3.2,4.4,5.5,8,5.5c3.6,0,6.8-2.3,8-5.5C14.8,4.8,11.6,2.5,8,2.5z M8,11.7
	c-2,0-3.6-1.6-3.6-3.7C4.4,5.9,6,4.3,8,4.3c2,0,3.6,1.6,3.6,3.7C11.6,10.1,10,11.7,8,11.7z M8,5.8c-1.2,0-2.2,1-2.2,2.2
	c0,1.2,0.9,2.2,2.2,2.2c1.2,0,2.2-1,2.2-2.2C10.2,6.8,9.2,5.8,8,5.8z"/>
</svg>
